<?xml version="1.0" encoding="UTF-8"?>
<svg xmlns="http://www.w3.org/2000/svg" width="960" height="240" viewBox="0 0 960 240" role="img" aria-label="Markdown CSS Preview">
  <defs>
    <linearGradient id="bg" x1="0" y1="0" x2="1" y2="1">
      <stop offset="0%" stop-color="#0f172a"/>
      <stop offset="55%" stop-color="#1e293b"/>
      <stop offset="100%" stop-color="#0f766e"/>
    </linearGradient>
    <linearGradient id="accent" x1="0" y1="0" x2="1" y2="0">
      <stop offset="0%" stop-color="#38bdf8"/>
      <stop offset="50%" stop-color="#4ec9b0"/>
      <stop offset="100%" stop-color="#60a5fa"/>
    </linearGradient>
  </defs>

  <rect width="960" height="240" rx="16" fill="url(#bg)"/>
  <rect x="1.5" y="1.5" width="957" height="237" rx="14.5" fill="none" stroke="url(#accent)" stroke-opacity="0.45"/>

  <g opacity="0.18" stroke="#94a3b8" stroke-width="1">
    <path d="M0 60 H960 M0 120 H960 M0 180 H960"/>
    <path d="M120 0 V240 M240 0 V240 M360 0 V240 M480 0 V240 M600 0 V240 M720 0 V240 M840 0 V240"/>
  </g>

  <rect x="56" y="56" width="10" height="128" rx="5" fill="url(#accent)"/>
  <text x="84" y="98" fill="#f8fafc" font-family="Segoe UI, Arial, sans-serif" font-size="34" font-weight="700">Markdown CSS Preview</text>
  <text x="84" y="136" fill="#cbd5e1" font-family="Segoe UI, Arial, sans-serif" font-size="18">Sample image for theme testing</text>
  <text x="84" y="168" fill="#7dd3fc" font-family="Consolas, monospace" font-size="15">headings / lists / code / tables / images</text>

  <g transform="translate(760, 52)">
    <rect x="0" y="0" width="144" height="136" rx="12" fill="#111827" stroke="#334155"/>
    <rect x="18" y="22" width="72" height="10" rx="5" fill="#4ec9b0"/>
    <rect x="18" y="44" width="108" height="8" rx="4" fill="#64748b"/>
    <rect x="18" y="62" width="96" height="8" rx="4" fill="#64748b"/>
    <rect x="18" y="88" width="108" height="34" rx="8" fill="#1f2937" stroke="#2563eb" stroke-opacity="0.5"/>
    <rect x="28" y="100" width="54" height="6" rx="3" fill="#569cd6"/>
    <rect x="28" y="112" width="72" height="6" rx="3" fill="#ce9178"/>
  </g>
</svg>
